<svg width="134" height="35" viewBox="0 0 134 35" fill="none" xmlns="http://www.w3.org/2000/svg">
<path d="M15.45 7.15039V2.90039H2.05005V32.1004H15.45V27.8504C12.705 27.8504 10.0724 26.7599 8.13149 24.8189C6.19049 22.8779 5.10005 20.2454 5.10005 17.5004C5.10005 14.7554 6.19049 12.1228 8.13149 10.1818C10.0724 8.24084 12.705 7.15039 15.45 7.15039Z" fill="#3563E9"/>
<path d="M15.45 7.15039V27.8504C18.195 27.8504 20.8276 26.7599 22.7686 24.8189C24.7096 22.8779 25.8 20.2454 25.8 17.5004C25.8 14.7554 24.7096 12.1228 22.7686 10.1818C20.8276 8.24084 18.195 7.15039 15.45 7.15039Z" fill="#3563E9"/>
<path d="M33.3201 9.75H36.3201V24.2H33.3201V9.75Z" fill="#3563E9"/>
<path d="M38 19.2499C38 18.2103 38.3087 17.1941 38.8869 16.3301C39.4651 15.4661 40.2868 14.7932 41.2479 14.3967C42.209 14.0003 43.2661 13.8981 44.2853 14.1031C45.3045 14.3081 46.2399 14.8111 46.9729 15.5483C47.7059 16.2856 48.2036 17.2238 48.4028 18.2442C48.6019 19.2646 48.4937 20.3211 48.0917 21.2799C47.6897 22.2386 47.0122 23.0565 46.1449 23.6297C45.2776 24.203 44.2596 24.5058 43.22 24.4999C42.5305 24.5053 41.8468 24.373 41.2091 24.1106C40.5714 23.8483 39.9924 23.4613 39.5062 22.9724C39.02 22.4834 38.6364 21.9022 38.3777 21.263C38.1191 20.6238 37.9907 19.9394 38 19.2499ZM45.52 19.2499C45.5082 18.8017 45.3645 18.3669 45.1069 18C44.8493 17.633 44.4893 17.3501 44.0717 17.1867C43.6542 17.0233 43.1978 16.9866 42.7596 17.0813C42.3213 17.1759 41.9207 17.3976 41.6078 17.7188C41.2949 18.0399 41.0836 18.4461 41.0004 18.8867C40.9172 19.3273 40.9657 19.7826 41.1399 20.1957C41.3141 20.6088 41.6062 20.9615 41.9798 21.2094C42.3533 21.4574 42.7916 21.5897 43.24 21.5899C43.5453 21.5959 43.8485 21.5388 44.1307 21.4222C44.4129 21.3057 44.668 21.1322 44.8801 20.9126C45.0922 20.693 45.2567 20.4319 45.3634 20.1459C45.4701 19.8598 45.5166 19.5548 45.5 19.2499H45.52Z" fill="#3563E9"/>
<path d="M60.31 14.3001V23.7101C60.31 27.0301 57.71 28.4401 55.08 28.4401C54.1523 28.5162 53.2218 28.3319 52.3933 27.9079C51.5647 27.4839 50.8709 26.837 50.39 26.0401L52.92 24.5801C53.125 24.9935 53.4511 25.3345 53.8549 25.5578C54.2587 25.7811 54.7209 25.8761 55.18 25.8301C55.4725 25.8661 55.7693 25.8371 56.0492 25.7451C56.3292 25.653 56.5853 25.5003 56.7993 25.2977C57.0134 25.0951 57.18 24.8478 57.2873 24.5733C57.3946 24.2989 57.4399 24.0041 57.42 23.7101V22.8001C57.0709 23.2234 56.6279 23.5594 56.1263 23.7816C55.6246 24.0038 55.0781 24.106 54.53 24.0801C53.2039 24.0801 51.9322 23.5533 50.9945 22.6156C50.0568 21.678 49.53 20.4062 49.53 19.0801C49.53 17.754 50.0568 16.4823 50.9945 15.5446C51.9322 14.6069 53.2039 14.0801 54.53 14.0801C55.0781 14.0542 55.6246 14.1564 56.1263 14.3786C56.6279 14.6008 57.0709 14.9368 57.42 15.3601V14.3601L60.31 14.3001ZM57.42 19.0501C57.4399 18.5717 57.3163 18.0982 57.065 17.6906C56.8137 17.283 56.4463 16.9599 56.0098 16.7628C55.5734 16.5657 55.0881 16.5037 54.6161 16.5847C54.1442 16.6657 53.7072 16.886 53.3615 17.2173C53.0158 17.5486 52.7771 17.9758 52.6761 18.4439C52.5751 18.912 52.6164 19.3995 52.7947 19.8439C52.9731 20.2883 53.2803 20.6692 53.6768 20.9376C54.0734 21.206 54.5412 21.3497 55.02 21.3501C55.3325 21.3726 55.6462 21.3293 55.9408 21.2231C56.2355 21.1168 56.5047 20.9499 56.7308 20.7331C56.957 20.5164 57.1352 20.2546 57.2539 19.9647C57.3726 19.6748 57.4292 19.3632 57.42 19.0501Z" fill="#3563E9"/>
<path d="M62.0001 19.25C62.0001 18.2112 62.3083 17.1958 62.8856 16.3322C63.4629 15.4686 64.2834 14.7957 65.2433 14.3987C66.2032 14.0016 67.2593 13.8982 68.278 14.1016C69.2967 14.305 70.2321 14.806 70.966 15.5412C71.6998 16.2765 72.199 17.2129 72.4004 18.2319C72.6019 19.251 72.4965 20.3069 72.0976 21.266C71.6987 22.2252 71.0242 23.0444 70.1596 23.6201C69.2949 24.1958 68.2789 24.502 67.2401 24.5C66.5493 24.5067 65.864 24.3754 65.2246 24.1138C64.5852 23.8522 64.0044 23.4656 63.5164 22.9766C63.0283 22.4876 62.6428 21.9061 62.3824 21.2662C62.1221 20.6263 61.9921 19.9408 62.0001 19.25ZM69.5201 19.25C69.5083 18.8014 69.3643 18.3662 69.1063 17.999C68.8483 17.6319 68.4876 17.349 68.0695 17.1859C67.6514 17.0228 67.1945 16.9867 66.756 17.0822C66.3175 17.1776 65.9169 17.4004 65.6044 17.7225C65.2919 18.0446 65.0814 18.4518 64.9994 18.893C64.9173 19.3342 64.9672 19.7898 65.1429 20.2027C65.3186 20.6157 65.6123 20.9676 65.9872 21.2144C66.362 21.4611 66.8013 21.5918 67.2501 21.59C67.5554 21.596 67.8586 21.5389 68.1408 21.4223C68.423 21.3058 68.6781 21.1323 68.8902 20.9127C69.1023 20.6931 69.2668 20.432 69.3735 20.146C69.4802 19.8599 69.5267 19.5549 69.5101 19.25H69.5201Z" fill="#3563E9"/>
<path d="M73.8701 11.6501C73.8701 11.2981 73.9745 10.9539 74.1701 10.6612C74.3657 10.3685 74.6437 10.1403 74.9689 10.0056C75.2942 9.87089 75.6521 9.83564 75.9974 9.90432C76.3426 9.973 76.6598 10.1425 76.9088 10.3915C77.1577 10.6404 77.3272 10.9576 77.3959 11.3028C77.4646 11.6481 77.4293 12.006 77.2946 12.3313C77.1599 12.6565 76.9317 12.9345 76.639 13.1301C76.3463 13.3257 76.0022 13.4301 75.6501 13.4301C75.1796 13.4249 74.7299 13.2357 74.3972 12.903C74.0645 12.5703 73.8753 12.1206 73.8701 11.6501ZM74.1601 14.3001H77.1601V24.2001H74.1601V14.3001Z" fill="#3563E9"/>
<path d="M90 19.2496C90.0336 19.908 89.9367 20.5666 89.7148 21.1874C89.493 21.8082 89.1505 22.379 88.7072 22.8669C88.2638 23.3549 87.7284 23.7503 87.1316 24.0305C86.5349 24.3107 85.8886 24.4701 85.23 24.4996C84.6711 24.5368 84.111 24.4473 83.5916 24.2378C83.0721 24.0282 82.6067 23.7041 82.23 23.2896V28.1796H79.23V14.2996H82.23V15.2296C82.6072 14.8163 83.073 14.4937 83.5925 14.2859C84.112 14.078 84.6718 13.9904 85.23 14.0296C85.886 14.0591 86.5297 14.2176 87.1244 14.4959C87.7191 14.7742 88.2532 15.167 88.6961 15.6517C89.1391 16.1364 89.4822 16.7036 89.7059 17.321C89.9296 17.9383 90.0296 18.5936 90 19.2496ZM87 19.2496C86.9882 18.7851 86.8395 18.3345 86.5727 17.9542C86.3059 17.5739 85.9327 17.2807 85.5 17.1116C85.0673 16.9424 84.5943 16.9048 84.1402 17.0033C83.6862 17.1018 83.2714 17.3322 82.9477 17.6655C82.624 17.9988 82.4059 18.4202 82.3208 18.877C82.2356 19.3337 82.2871 19.8054 82.4689 20.233C82.6507 20.6605 82.9546 21.0249 83.3426 21.2805C83.7306 21.5361 84.1854 21.6714 84.65 21.6696C84.9682 21.6831 85.2857 21.6292 85.5816 21.5114C85.8776 21.3936 86.1453 21.2146 86.3672 20.9861C86.5891 20.7576 86.7601 20.4847 86.8692 20.1855C86.9783 19.8862 87.0228 19.5673 87 19.2496Z" fill="#3563E9"/>
<path d="M99.13 21.2297C99.13 23.5097 97.13 24.4797 95.01 24.4797C94.1453 24.5575 93.2772 24.3742 92.5178 23.9535C91.7584 23.5328 91.1426 22.894 90.75 22.1197L93.33 20.6597C93.4322 21.0165 93.6538 21.3274 93.9578 21.5404C94.2618 21.7534 94.6297 21.8555 95 21.8297C95.71 21.8297 96.07 21.6097 96.07 21.2097C96.07 20.1197 91.2 20.6997 91.2 17.2697C91.2 15.1097 93.02 14.0297 95.08 14.0297C95.863 13.9946 96.641 14.1723 97.3311 14.5438C98.0213 14.9153 98.598 15.4668 99 16.1397L96.42 17.4997C96.306 17.2417 96.1198 17.0223 95.8838 16.8679C95.6477 16.7135 95.372 16.6308 95.09 16.6297C94.57 16.6297 94.26 16.8297 94.26 17.1797C94.26 18.3197 99.13 17.5697 99.13 21.2297Z" fill="#3563E9"/>
<path d="M110 14.2998V24.1998H107V23.2698C106.659 23.6815 106.226 24.0072 105.737 24.2209C105.247 24.4346 104.714 24.5301 104.18 24.4998C102.18 24.4998 100.47 23.0698 100.47 20.3998V14.2998H103.47V19.9498C103.446 20.186 103.474 20.4245 103.552 20.6489C103.63 20.8732 103.755 21.078 103.919 21.2492C104.084 21.4203 104.284 21.5537 104.505 21.6402C104.726 21.7266 104.963 21.764 105.2 21.7498C106.28 21.7498 107.04 21.1098 107.04 19.7498V14.2998H110Z" fill="#3563E9"/>
<path d="M127 18.1197V24.1997H124V18.3797C124 17.3797 123.53 16.7597 122.58 16.7597C121.63 16.7597 121.03 17.4497 121.03 18.6197V24.1997H118.03V18.3797C118.03 17.3797 117.56 16.7597 116.61 16.7597C115.66 16.7597 115.06 17.4497 115.06 18.6197V24.1997H112.06V14.2997H115.06V15.2097C115.371 14.8077 115.776 14.4893 116.241 14.2833C116.705 14.0773 117.214 13.9901 117.72 14.0297C118.227 14.0032 118.733 14.1092 119.187 14.3371C119.641 14.565 120.028 14.9071 120.31 15.3297C120.64 14.8881 121.076 14.5373 121.578 14.31C122.079 14.0826 122.631 13.9862 123.18 14.0297C125.52 14.0297 127 15.6497 127 18.1197Z" fill="#3563E9"/>
<path d="M129.52 14.2398C130.735 14.2398 131.72 13.2548 131.72 12.0398C131.72 10.8248 130.735 9.83984 129.52 9.83984C128.305 9.83984 127.32 10.8248 127.32 12.0398C127.32 13.2548 128.305 14.2398 129.52 14.2398Z" fill="#3563E9"/>
</svg>
