<?xml version="1.0" encoding="UTF-8" standalone="no"?>
<!DOCTYPE svg PUBLIC "-//W3C//DTD SVG 1.1//EN" "http://www.w3.org/Graphics/SVG/1.1/DTD/svg11.dtd">
<svg width="100%" height="100%" viewBox="0 0 500 500" version="1.1" xmlns="http://www.w3.org/2000/svg" xmlns:xlink="http://www.w3.org/1999/xlink" xml:space="preserve" xmlns:serif="http://www.serif.com/" style="fill-rule:evenodd;clip-rule:evenodd;stroke-linejoin:round;stroke-miterlimit:2;">
    <rect id="Artboard1" x="0" y="0" width="500" height="500" style="fill:none;"/>
    <g id="Artboard11" serif:id="Artboard1">
        <g transform="matrix(2.21233,0,0,2.21233,102.028,212.39)">
            <path d="M15.45,6.65L15.45,2.4L2.05,2.4L2.05,31.6L15.45,31.6L15.45,27.35C12.705,27.35 10.072,26.26 8.131,24.319C6.19,22.378 5.1,19.745 5.1,17C5.1,14.255 6.19,11.622 8.131,9.681C10.072,7.74 12.705,6.65 15.45,6.65Z" style="fill:rgb(53,99,233);fill-rule:nonzero;"/>
        </g>
        <g transform="matrix(2.21233,0,0,2.21233,102.028,212.39)">
            <path d="M15.45,6.65L15.45,27.35C18.195,27.35 20.828,26.26 22.769,24.319C24.71,22.378 25.8,19.745 25.8,17C25.8,14.255 24.71,11.622 22.769,9.681C20.828,7.74 18.195,6.65 15.45,6.65Z" style="fill:rgb(53,99,233);fill-rule:nonzero;"/>
        </g>
        <g transform="matrix(2.21233,0,0,2.21233,102.028,212.39)">
            <rect x="33.32" y="9.25" width="3" height="14.45" style="fill:rgb(53,99,233);fill-rule:nonzero;"/>
        </g>
        <g transform="matrix(2.21233,0,0,2.21233,102.028,212.39)">
            <path d="M38,18.75C38,17.71 38.309,16.694 38.887,15.83C39.465,14.966 40.287,14.293 41.248,13.897C42.209,13.5 43.266,13.398 44.285,13.603C45.305,13.808 46.24,14.311 46.973,15.048C47.706,15.786 48.204,16.724 48.403,17.744C48.602,18.765 48.494,19.821 48.092,20.78C47.69,21.739 47.012,22.557 46.145,23.13C45.278,23.703 44.26,24.006 43.22,24C42.531,24.005 41.847,23.873 41.209,23.611C40.571,23.348 39.992,22.961 39.506,22.473C39.02,21.984 38.636,21.402 38.378,20.763C38.119,20.124 37.991,19.44 38,18.75ZM45.52,18.75C45.508,18.302 45.365,17.867 45.107,17.5C44.849,17.133 44.489,16.85 44.072,16.687C43.654,16.523 43.198,16.487 42.76,16.581C42.321,16.676 41.921,16.898 41.608,17.219C41.295,17.54 41.084,17.946 41,18.387C40.917,18.827 40.966,19.283 41.14,19.696C41.314,20.109 41.606,20.462 41.98,20.709C42.353,20.958 42.792,21.09 43.24,21.09C43.545,21.096 43.849,21.039 44.131,20.922C44.413,20.806 44.668,20.632 44.88,20.413C45.092,20.193 45.257,19.932 45.363,19.646C45.47,19.36 45.517,19.055 45.5,18.75L45.52,18.75Z" style="fill:rgb(53,99,233);fill-rule:nonzero;"/>
        </g>
        <g transform="matrix(2.21233,0,0,2.21233,102.028,212.39)">
            <path d="M60.31,13.8L60.31,23.21C60.31,26.53 57.71,27.94 55.08,27.94C54.152,28.016 53.222,27.832 52.393,27.408C51.565,26.984 50.871,26.337 50.39,25.54L52.92,24.08C53.125,24.493 53.451,24.834 53.855,25.058C54.259,25.281 54.721,25.376 55.18,25.33C55.472,25.366 55.769,25.337 56.049,25.245C56.329,25.153 56.585,25 56.799,24.798C57.013,24.595 57.18,24.348 57.287,24.073C57.395,23.799 57.44,23.504 57.42,23.21L57.42,22.3C57.071,22.723 56.628,23.059 56.126,23.282C55.625,23.504 55.078,23.606 54.53,23.58C53.204,23.58 51.932,23.053 50.995,22.116C50.057,21.178 49.53,19.906 49.53,18.58C49.53,17.254 50.057,15.982 50.995,15.044C51.932,14.107 53.204,13.58 54.53,13.58C55.078,13.554 55.625,13.656 56.126,13.879C56.628,14.101 57.071,14.437 57.42,14.86L57.42,13.86L60.31,13.8ZM57.42,18.55C57.44,18.072 57.316,17.598 57.065,17.191C56.814,16.783 56.446,16.46 56.01,16.263C55.573,16.066 55.088,16.004 54.616,16.085C54.144,16.166 53.707,16.386 53.362,16.717C53.016,17.049 52.777,17.476 52.676,17.944C52.575,18.412 52.616,18.899 52.795,19.344C52.973,19.788 53.28,20.169 53.677,20.438C54.073,20.706 54.541,20.85 55.02,20.85C55.333,20.873 55.646,20.829 55.941,20.723C56.236,20.617 56.505,20.45 56.731,20.233C56.957,20.016 57.135,19.755 57.254,19.465C57.373,19.175 57.429,18.863 57.42,18.55Z" style="fill:rgb(53,99,233);fill-rule:nonzero;"/>
        </g>
        <g transform="matrix(2.21233,0,0,2.21233,102.028,212.39)">
            <path d="M62,18.75C62,17.711 62.308,16.696 62.886,15.832C63.463,14.969 64.283,14.296 65.243,13.899C66.203,13.502 67.259,13.398 68.278,13.602C69.297,13.805 70.232,14.306 70.966,15.041C71.7,15.777 72.199,16.713 72.4,17.732C72.602,18.751 72.496,19.807 72.098,20.766C71.699,21.725 71.024,22.544 70.16,23.12C69.295,23.696 68.279,24.002 67.24,24C66.549,24.007 65.864,23.875 65.225,23.614C64.585,23.352 64.004,22.966 63.516,22.477C63.028,21.988 62.643,21.406 62.382,20.766C62.122,20.126 61.992,19.441 62,18.75ZM69.52,18.75C69.508,18.301 69.364,17.866 69.106,17.499C68.848,17.132 68.488,16.849 68.069,16.686C67.651,16.523 67.194,16.487 66.756,16.582C66.317,16.678 65.917,16.9 65.604,17.223C65.292,17.545 65.081,17.952 64.999,18.393C64.917,18.834 64.967,19.29 65.143,19.703C65.319,20.116 65.612,20.468 65.987,20.714C66.362,20.961 66.801,21.092 67.25,21.09C67.555,21.096 67.859,21.039 68.141,20.922C68.423,20.806 68.678,20.632 68.89,20.413C69.102,20.193 69.267,19.932 69.373,19.646C69.48,19.36 69.527,19.055 69.51,18.75L69.52,18.75Z" style="fill:rgb(53,99,233);fill-rule:nonzero;"/>
        </g>
        <g transform="matrix(2.21233,0,0,2.21233,102.028,212.39)">
            <path d="M73.87,11.15C73.87,10.798 73.974,10.454 74.17,10.161C74.366,9.868 74.644,9.64 74.969,9.505C75.294,9.371 75.652,9.336 75.997,9.404C76.343,9.473 76.66,9.642 76.909,9.891C77.158,10.14 77.327,10.458 77.396,10.803C77.465,11.148 77.429,11.506 77.295,11.831C77.16,12.156 76.932,12.434 76.639,12.63C76.346,12.826 76.002,12.93 75.65,12.93C75.18,12.925 74.73,12.736 74.397,12.403C74.064,12.07 73.875,11.621 73.87,11.15ZM74.16,13.8L77.16,13.8L77.16,23.7L74.16,23.7L74.16,13.8Z" style="fill:rgb(53,99,233);fill-rule:nonzero;"/>
        </g>
        <g transform="matrix(2.21233,0,0,2.21233,102.028,212.39)">
            <path d="M90,18.75C90.034,19.408 89.937,20.067 89.715,20.688C89.493,21.309 89.15,21.879 88.707,22.367C88.264,22.855 87.728,23.251 87.132,23.531C86.535,23.811 85.889,23.971 85.23,24C84.671,24.037 84.111,23.948 83.592,23.738C83.072,23.529 82.607,23.205 82.23,22.79L82.23,27.68L79.23,27.68L79.23,13.8L82.23,13.8L82.23,14.73C82.607,14.317 83.073,13.994 83.593,13.786C84.112,13.578 84.672,13.491 85.23,13.53C85.886,13.56 86.53,13.718 87.124,13.996C87.719,14.275 88.253,14.667 88.696,15.152C89.139,15.637 89.482,16.204 89.706,16.821C89.93,17.439 90.03,18.094 90,18.75ZM87,18.75C86.988,18.286 86.84,17.835 86.573,17.455C86.306,17.074 85.933,16.781 85.5,16.612C85.067,16.443 84.594,16.405 84.14,16.504C83.686,16.602 83.271,16.833 82.948,17.166C82.624,17.499 82.406,17.921 82.321,18.377C82.236,18.834 82.287,19.306 82.469,19.733C82.651,20.161 82.955,20.525 83.343,20.781C83.731,21.037 84.185,21.172 84.65,21.17C84.968,21.184 85.286,21.13 85.582,21.012C85.878,20.894 86.145,20.715 86.367,20.487C86.589,20.258 86.76,19.985 86.869,19.686C86.978,19.387 87.023,19.068 87,18.75Z" style="fill:rgb(53,99,233);fill-rule:nonzero;"/>
        </g>
        <g transform="matrix(2.21233,0,0,2.21233,102.028,212.39)">
            <path d="M99.13,20.73C99.13,23.01 97.13,23.98 95.01,23.98C94.145,24.058 93.277,23.875 92.518,23.454C91.758,23.033 91.143,22.394 90.75,21.62L93.33,20.16C93.432,20.517 93.654,20.828 93.958,21.041C94.262,21.254 94.63,21.356 95,21.33C95.71,21.33 96.07,21.11 96.07,20.71C96.07,19.62 91.2,20.2 91.2,16.77C91.2,14.61 93.02,13.53 95.08,13.53C95.863,13.495 96.641,13.673 97.331,14.044C98.021,14.416 98.598,14.967 99,15.64L96.42,17C96.306,16.742 96.12,16.523 95.884,16.368C95.648,16.214 95.372,16.131 95.09,16.13C94.57,16.13 94.26,16.33 94.26,16.68C94.26,17.82 99.13,17.07 99.13,20.73Z" style="fill:rgb(53,99,233);fill-rule:nonzero;"/>
        </g>
        <g transform="matrix(2.21233,0,0,2.21233,102.028,212.39)">
            <path d="M110,13.8L110,23.7L107,23.7L107,22.77C106.659,23.182 106.226,23.507 105.737,23.721C105.247,23.935 104.714,24.03 104.18,24C102.18,24 100.47,22.57 100.47,19.9L100.47,13.8L103.47,13.8L103.47,19.45C103.446,19.686 103.474,19.925 103.552,20.149C103.63,20.373 103.755,20.578 103.919,20.749C104.084,20.921 104.284,21.054 104.505,21.14C104.726,21.227 104.963,21.264 105.2,21.25C106.28,21.25 107.04,20.61 107.04,19.25L107.04,13.8L110,13.8Z" style="fill:rgb(53,99,233);fill-rule:nonzero;"/>
        </g>
        <g transform="matrix(2.21233,0,0,2.21233,102.028,212.39)">
            <path d="M127,17.62L127,23.7L124,23.7L124,17.88C124,16.88 123.53,16.26 122.58,16.26C121.63,16.26 121.03,16.95 121.03,18.12L121.03,23.7L118.03,23.7L118.03,17.88C118.03,16.88 117.56,16.26 116.61,16.26C115.66,16.26 115.06,16.95 115.06,18.12L115.06,23.7L112.06,23.7L112.06,13.8L115.06,13.8L115.06,14.71C115.371,14.308 115.776,13.99 116.241,13.784C116.705,13.578 117.214,13.49 117.72,13.53C118.227,13.504 118.733,13.61 119.187,13.837C119.641,14.065 120.028,14.407 120.31,14.83C120.64,14.388 121.076,14.038 121.578,13.81C122.079,13.583 122.631,13.487 123.18,13.53C125.52,13.53 127,15.15 127,17.62Z" style="fill:rgb(53,99,233);fill-rule:nonzero;"/>
        </g>
        <g transform="matrix(2.21233,0,0,2.21233,102.028,212.39)">
            <path d="M129.52,13.74C130.735,13.74 131.72,12.755 131.72,11.54C131.72,10.325 130.735,9.34 129.52,9.34C128.305,9.34 127.32,10.325 127.32,11.54C127.32,12.755 128.305,13.74 129.52,13.74Z" style="fill:rgb(53,99,233);fill-rule:nonzero;"/>
        </g>
    </g>
</svg>
