<svg width="100%" height="100%" viewBox="0 0 600 600" version="1.1" xmlns="http://www.w3.org/2000/svg" xmlns:xlink="http://www.w3.org/1999/xlink" xml:space="preserve" xmlns:serif="http://www.serif.com/" style="fill-rule:evenodd;clip-rule:evenodd;stroke-linejoin:round;stroke-miterlimit:2;">
    <g id="logo" transform="matrix(1,0,0,1,-80,0)">
        <rect x="80" y="0" width="600" height="600" style="fill:none;"/>
        <g id="ring" transform="matrix(1,0,0,1,-117.575,-33.3045)">
            <path d="M497.575,74.136C640.613,74.136 756.743,190.266 756.743,333.305C756.743,476.343 640.613,592.473 497.575,592.473C354.536,592.473 238.406,476.343 238.406,333.305C238.406,190.266 354.536,74.136 497.575,74.136ZM497.575,138.928C604.854,138.928 691.951,226.025 691.951,333.305C691.951,440.584 604.854,527.681 497.575,527.681C390.295,527.681 303.198,440.584 303.198,333.305C303.198,226.025 390.295,138.928 497.575,138.928Z"/>
        </g>
        <g id="inner-diamonds" transform="matrix(1,0,0,1,-19.9999,13.1506)">
            <path d="M400.089,168.924L490.36,226.887L400.089,284.85L309.818,226.887L400.089,168.924ZM400.089,212.175L424.798,226.887L400.089,241.599L375.38,226.887L400.089,212.175Z"/>
            <path d="M304.566,228.887L394.837,286.85L304.566,344.813L214.294,286.85L304.566,228.887ZM304.566,272.137L329.275,286.849L304.566,301.561L279.857,286.849L304.566,272.137Z"/>
            <path d="M400.089,289.85L490.36,347.813L400.089,405.776L309.818,347.813L400.089,289.85ZM400.001,333.1L424.709,347.812L400.001,362.524L375.291,347.812L400.001,333.1Z"/>
            <path d="M496.644,228.887L586.915,286.85L496.644,344.813L406.372,286.85L496.644,228.887ZM496.644,272.137L521.353,286.849L496.644,301.561L471.935,286.849L496.644,272.137Z"/>
        </g>
    </g>
</svg>
