<svg xmlns="http://www.w3.org/2000/svg" viewBox="0 0 32 32"><path d="M16 0C7.163 0 0 7.164 0 16s7.164 16 16 16c8.837 0 16-7.164 16-16S24.837 0 16 0zm1.404 20.053c-1.129 0-2.19-.61-2.554-1.303 0 0-.607 2.409-.735 2.874-.453 1.643-1.784 3.286-1.887 3.421-.073.094-.231.064-.248-.06-.029-.209-.368-2.282.031-3.973l1.344-5.696s-.333-.667-.333-1.654c0-1.55.898-2.706 2.016-2.706.951 0 1.41.713 1.41 1.569 0 .956-.608 2.385-.923 3.709-.262 1.109.556 2.014 1.65 2.014 1.98 0 3.314-2.544 3.314-5.559 0-2.291-1.543-4.006-4.35-4.006-3.17 0-5.147 2.365-5.147 5.007 0 .911.269 1.554.69 2.05.193.229.22.32.15.583-.051.193-.165.655-.214.839-.069.265-.284.359-.523.262-1.46-.596-2.141-2.196-2.141-3.994 0-2.969 2.505-6.53 7.471-6.53 3.992 0 6.618 2.887 6.618 5.989.002 4.1-2.278 7.164-5.639 7.164z"/></svg>