<svg width="60" height="60" viewBox="0 0 60 60" fill="none" xmlns="http://www.w3.org/2000/svg">
<rect width="60" height="60" rx="30" fill="#EFF3FD"/>
<path d="M31.6193 39.2386C30.483 39.2386 29.4659 39.0256 28.5682 38.5994C27.6705 38.1676 26.9574 37.5767 26.429 36.8267C25.9063 36.0767 25.6278 35.2187 25.5938 34.2528H28.6619C28.7188 34.9687 29.0284 35.554 29.5909 36.0085C30.1534 36.4574 30.8295 36.6818 31.6193 36.6818C32.2386 36.6818 32.7898 36.5398 33.2727 36.2557C33.7557 35.9716 34.1364 35.5767 34.4148 35.071C34.6932 34.5653 34.8295 33.9886 34.8239 33.3409C34.8295 32.6818 34.6903 32.0966 34.4062 31.5852C34.1222 31.0739 33.733 30.6733 33.2386 30.3835C32.7443 30.0881 32.1761 29.9403 31.5341 29.9403C31.0114 29.9347 30.4972 30.0312 29.9915 30.2301C29.4858 30.429 29.0852 30.6903 28.7898 31.0142L25.9347 30.5455L26.8466 21.5455H36.9716V24.1875H29.4631L28.9602 28.8153H29.0625C29.3864 28.4347 29.8438 28.1193 30.4347 27.8693C31.0256 27.6136 31.6733 27.4858 32.3778 27.4858C33.4347 27.4858 34.3778 27.7358 35.2074 28.2358C36.0369 28.7301 36.6903 29.4119 37.1676 30.2812C37.6449 31.1506 37.8835 32.1449 37.8835 33.2642C37.8835 34.4176 37.6165 35.446 37.0824 36.3494C36.554 37.2472 35.8182 37.9545 34.875 38.4716C33.9375 38.983 32.8523 39.2386 31.6193 39.2386Z" fill="#2851E3"/>
</svg>
