<svg width="60" height="60" viewBox="0 0 60 60" fill="none" xmlns="http://www.w3.org/2000/svg">
<rect width="60" height="60" rx="30" fill="#EFF3FD"/>
<path d="M25.5511 39V36.7159L31.6108 30.7756C32.1903 30.1903 32.6733 29.6705 33.0597 29.2159C33.446 28.7614 33.7358 28.321 33.929 27.8949C34.1222 27.4687 34.2188 27.0142 34.2188 26.5312C34.2188 25.9801 34.0938 25.5085 33.8438 25.1165C33.5938 24.7188 33.25 24.4119 32.8125 24.196C32.375 23.9801 31.8778 23.8722 31.321 23.8722C30.7472 23.8722 30.2443 23.9915 29.8125 24.2301C29.3807 24.4631 29.0455 24.7955 28.8068 25.2273C28.5739 25.6591 28.4574 26.1733 28.4574 26.7699H25.4489C25.4489 25.6619 25.7017 24.6989 26.2074 23.8807C26.7131 23.0625 27.4091 22.429 28.2955 21.9801C29.1875 21.5312 30.2102 21.3068 31.3636 21.3068C32.5341 21.3068 33.5625 21.5256 34.4489 21.9631C35.3352 22.4006 36.0227 23 36.5114 23.7614C37.0057 24.5227 37.2528 25.392 37.2528 26.3693C37.2528 27.0227 37.1278 27.6648 36.8778 28.2955C36.6278 28.9261 36.1875 29.625 35.5568 30.392C34.9318 31.1591 34.054 32.0881 32.9233 33.179L29.9148 36.2386V36.358H37.517V39H25.5511Z" fill="#2851E3"/>
</svg>
