<svg width="60" height="60" viewBox="0 0 60 60" fill="none" xmlns="http://www.w3.org/2000/svg">
<rect width="60" height="60" rx="30" fill="#EFF3FD"/>
<path d="M31.8153 39.2386C30.5881 39.2386 29.4972 39.0284 28.5426 38.608C27.5938 38.1875 26.8438 37.6023 26.2926 36.8523C25.7415 36.1023 25.4489 35.2358 25.4148 34.2528H28.6193C28.6477 34.7244 28.804 35.1364 29.0881 35.4886C29.3722 35.8352 29.75 36.1051 30.2216 36.2983C30.6932 36.4915 31.2216 36.5881 31.8068 36.5881C32.4318 36.5881 32.9858 36.4801 33.4688 36.2642C33.9517 36.0426 34.3295 35.7358 34.6023 35.3438C34.875 34.9517 35.0085 34.5 35.0028 33.9886C35.0085 33.4602 34.8722 32.9943 34.5938 32.5909C34.3153 32.1875 33.9119 31.8722 33.3835 31.6449C32.8608 31.4176 32.2301 31.304 31.4915 31.304H29.9489V28.8665H31.4915C32.0994 28.8665 32.6307 28.7614 33.0852 28.5511C33.5455 28.3409 33.9063 28.0455 34.1676 27.6648C34.429 27.2784 34.5568 26.8324 34.5511 26.3267C34.5568 25.8324 34.446 25.4034 34.2188 25.0398C33.9972 24.6705 33.6818 24.3835 33.2727 24.179C32.8693 23.9744 32.3949 23.8722 31.8494 23.8722C31.3153 23.8722 30.821 23.9687 30.3665 24.1619C29.9119 24.3551 29.5455 24.6307 29.267 24.9886C28.9886 25.3409 28.8409 25.7614 28.8239 26.25H25.7812C25.804 25.2727 26.0852 24.4148 26.625 23.6761C27.1705 22.9318 27.8977 22.3523 28.8068 21.9375C29.7159 21.517 30.7358 21.3068 31.8665 21.3068C33.0313 21.3068 34.0426 21.5256 34.9006 21.9631C35.7642 22.3949 36.4318 22.9773 36.9034 23.7102C37.375 24.4432 37.6108 25.2528 37.6108 26.1392C37.6165 27.1222 37.3267 27.946 36.7415 28.6108C36.1619 29.2756 35.4006 29.7102 34.4574 29.9148V30.0511C35.6847 30.2216 36.625 30.6761 37.2784 31.4148C37.9375 32.1477 38.2642 33.0597 38.2585 34.1506C38.2585 35.1278 37.9801 36.0028 37.4233 36.7756C36.8722 37.5426 36.1108 38.1449 35.1392 38.5824C34.1733 39.0199 33.0653 39.2386 31.8153 39.2386Z" fill="#2851E3"/>
</svg>
