<svg width="90" height="90" viewBox="0 0 90 90" fill="none" xmlns="http://www.w3.org/2000/svg">
<rect width="90" height="90" rx="45" fill="#E7ECFC"/>
<path d="M52 52L45 45L38 52" stroke="#2851E3" stroke-width="2" stroke-linecap="round" stroke-linejoin="round"/>
<path d="M45 45V60.75" stroke="#2851E3" stroke-width="2" stroke-linecap="round" stroke-linejoin="round"/>
<path d="M59.6825 56.1826C61.3894 55.2521 62.7378 53.7796 63.5148 51.9977C64.2919 50.2157 64.4534 48.2258 63.9739 46.3418C63.4944 44.4579 62.4012 42.7872 60.8667 41.5936C59.3323 40.4 57.4441 39.7514 55.5 39.7501H53.2951C52.7654 37.7013 51.7781 35.7992 50.4075 34.1868C49.0368 32.5745 47.3185 31.2938 45.3817 30.4412C43.4449 29.5885 41.34 29.186 39.2253 29.2639C37.1105 29.3418 35.0409 29.8981 33.1721 30.891C31.3033 31.8839 29.6839 33.2875 28.4356 34.9964C27.1874 36.7052 26.3428 38.6748 25.9653 40.757C25.5878 42.8393 25.6872 44.98 26.2562 47.0183C26.8251 49.0566 27.8487 50.9394 29.2501 52.5251" stroke="#2851E3" stroke-width="2" stroke-linecap="round" stroke-linejoin="round"/>
<path d="M52 52L45 45L38 52" stroke="#2851E3" stroke-width="2" stroke-linecap="round" stroke-linejoin="round"/>
</svg>
