<svg width="60" height="60" viewBox="0 0 60 60" fill="none" xmlns="http://www.w3.org/2000/svg">
<rect width="60" height="60" rx="30" fill="#EFF3FD"/>
<path d="M37.1625 24.6625C37.5261 24.2998 37.9734 24.0324 38.4649 23.8837C38.9564 23.7351 39.477 23.7099 39.9806 23.8103C40.4842 23.9108 40.9553 24.1338 41.3522 24.4596C41.7491 24.7854 42.0596 25.204 42.2562 25.6783C42.4529 26.1527 42.5296 26.6682 42.4796 27.1793C42.4296 27.6903 42.2544 28.1812 41.9695 28.6085C41.6847 29.0357 41.2989 29.3862 40.8464 29.6289C40.3939 29.8716 39.8885 29.9991 39.375 30H17.5M26.9875 20.7375C27.2779 20.4454 27.6359 20.2295 28.0298 20.1092C28.4237 19.9888 28.8413 19.9676 29.2453 20.0475C29.6494 20.1273 30.0275 20.3058 30.3459 20.567C30.6644 20.8282 30.9134 21.1641 31.0708 21.5447C31.2282 21.9253 31.2891 22.339 31.2481 22.7488C31.2071 23.1586 31.0655 23.552 30.8358 23.8939C30.6062 24.2358 30.2956 24.5157 29.9317 24.7087C29.5678 24.9016 29.1619 25.0017 28.75 25H17.5L26.9875 20.7375ZM30.7375 39.2625C31.0279 39.5546 31.3859 39.7704 31.7798 39.8908C32.1737 40.0112 32.5913 40.0324 32.9953 39.9525C33.3994 39.8726 33.7775 39.6941 34.0959 39.4329C34.4144 39.1717 34.6634 38.8359 34.8208 38.4552C34.9782 38.0746 35.0391 37.661 34.9981 37.2511C34.9571 36.8413 34.8155 36.4479 34.5858 36.106C34.3562 35.7641 34.0456 35.4842 33.6817 35.2913C33.3178 35.0983 32.9119 34.9982 32.5 35H17.5L30.7375 39.2625Z" stroke="#2851E3" stroke-width="2" stroke-linecap="round" stroke-linejoin="round"/>
</svg>
