<svg width="60" height="60" viewBox="0 0 60 60" fill="none" xmlns="http://www.w3.org/2000/svg">
<rect width="60" height="60" rx="30" fill="#EFF3FD"/>
<path d="M30 38.75C34.8325 38.75 38.75 34.8325 38.75 30C38.75 25.1675 34.8325 21.25 30 21.25C25.1675 21.25 21.25 25.1675 21.25 30C21.25 34.8325 25.1675 38.75 30 38.75Z" stroke="#2851E3" stroke-width="2" stroke-linecap="round" stroke-linejoin="round"/>
<path d="M30 26.25V30L31.875 31.875" stroke="#2851E3" stroke-width="2" stroke-linecap="round" stroke-linejoin="round"/>
<path d="M35.6375 36.6875L35.2 41.475C35.1437 42.0983 34.8556 42.6778 34.3928 43.0991C33.9299 43.5203 33.3258 43.7526 32.7 43.75H27.2875C26.6617 43.7526 26.0576 43.5203 25.5948 43.0991C25.1319 42.6778 24.8438 42.0983 24.7875 41.475L24.35 36.6875M24.3625 23.3125L24.8 18.525C24.8561 17.9039 25.1424 17.3261 25.6026 16.9052C26.0629 16.4843 26.6638 16.2506 27.2875 16.25H32.725C33.3508 16.2475 33.9549 16.4798 34.4178 16.901C34.8806 17.3222 35.1687 17.9017 35.225 18.525L35.6625 23.3125" stroke="#2851E3" stroke-width="2" stroke-linecap="round" stroke-linejoin="round"/>
</svg>
