<svg width="60" height="60" viewBox="0 0 60 60" fill="none" xmlns="http://www.w3.org/2000/svg">
<rect width="60" height="60" rx="30" fill="#EFF3FD"/>
<path d="M43.175 23.025C43.0265 22.4318 42.7241 21.8882 42.2983 21.4493C41.8725 21.0103 41.3384 20.6915 40.75 20.525C38.6 20 30 20 30 20C30 20 21.4 20 19.25 20.575C18.6615 20.7415 18.1275 21.0603 17.7017 21.4993C17.2759 21.9382 16.9735 22.4818 16.825 23.075C16.4315 25.2569 16.239 27.4704 16.25 29.6875C16.236 31.9213 16.4284 34.1516 16.825 36.35C16.9887 36.9248 17.2979 37.4477 17.7227 37.8681C18.1475 38.2885 18.6735 38.5923 19.25 38.75C21.4 39.325 30 39.325 30 39.325C30 39.325 38.6 39.325 40.75 38.75C41.3384 38.5835 41.8725 38.2647 42.2983 37.8257C42.7241 37.3868 43.0265 36.8432 43.175 36.25C43.5654 34.0845 43.7579 31.8879 43.75 29.6875C43.764 27.4537 43.5715 25.2234 43.175 23.025V23.025Z" stroke="#2851E3" stroke-width="2" stroke-linecap="round" stroke-linejoin="round"/>
<path d="M27.1875 33.7751L34.375 29.6876L27.1875 25.6001V33.7751Z" stroke="#2851E3" stroke-width="2" stroke-linecap="round" stroke-linejoin="round"/>
</svg>
