<svg width="92" height="93" viewBox="0 0 92 93" fill="none" xmlns="http://www.w3.org/2000/svg">
<path d="M72.8333 12H19.1667C14.9325 12 11.5 15.4325 11.5 19.6667V73.3333C11.5 77.5675 14.9325 81 19.1667 81H72.8333C77.0675 81 80.5 77.5675 80.5 73.3333V19.6667C80.5 15.4325 77.0675 12 72.8333 12Z" stroke="#212121" stroke-width="3" stroke-linecap="round" stroke-linejoin="round"/>
<path d="M32.5833 38.8335C35.7589 38.8335 38.3333 36.2591 38.3333 33.0835C38.3333 29.9079 35.7589 27.3335 32.5833 27.3335C29.4076 27.3335 26.8333 29.9079 26.8333 33.0835C26.8333 36.2591 29.4076 38.8335 32.5833 38.8335Z" stroke="#212121" stroke-width="3" stroke-linecap="round" stroke-linejoin="round"/>
<path d="M80.5001 58.0002L61.3334 38.8335L19.1667 81.0002" stroke="#212121" stroke-width="3" stroke-linecap="round" stroke-linejoin="round"/>
</svg>
