<svg class="globe" width="24" height="24" viewBox="0 0 24 24" fill="none" xmlns="http://www.w3.org/2000/svg">
<path d="M12 22C17.5228 22 22 17.5228 22 12C22 6.47715 17.5228 2 12 2C6.47715 2 2 6.47715 2 12C2 17.5228 6.47715 22 12 22Z" stroke="#212121" stroke-width="2" stroke-linecap="round" stroke-linejoin="round"/>
<path d="M2 12H22" stroke="#212121" stroke-width="2" stroke-linecap="round" stroke-linejoin="round"/>
<path d="M12 2C14.5013 4.73835 15.9228 8.29203 16 12C15.9228 15.708 14.5013 19.2616 12 22C9.49872 19.2616 8.07725 15.708 8 12C8.07725 8.29203 9.49872 4.73835 12 2V2Z" stroke="#212121" stroke-width="2" stroke-linecap="round" stroke-linejoin="round"/>
</svg>

<svg class="lang" width="20" height="13" viewBox="0 0 20 13" fill="none" xmlns="http://www.w3.org/2000/svg">
<path d="M0.0113636 12.5V0.863636H7.85227V2.89205H2.47159V5.66477H7.44886V7.69318H2.47159V10.4716H7.875V12.5H0.0113636ZM19.7412 0.863636V12.5H17.6162L12.5537 5.17614H12.4685V12.5H10.0082V0.863636H12.1673L17.1901 8.18182H17.2923V0.863636H19.7412Z" fill="black"/>
</svg>
