<svg class="logo" width="130" height="31" viewBox="0 0 130 31" fill="none" xmlns="http://www.w3.org/2000/svg">
<path d="M13.45 5.15039V0.900391H0.0500031V30.1004H13.45V25.8504C10.705 25.8504 8.0724 24.7599 6.13144 22.8189C4.19044 20.8779 3.1 18.2454 3.1 15.5004C3.1 12.7554 4.19044 10.1228 6.13144 8.18184C8.0724 6.24084 10.705 5.15039 13.45 5.15039Z" fill="#3563E9"/>
<path d="M13.45 5.15039V25.8504C16.195 25.8504 18.8276 24.7599 20.7686 22.8189C22.7096 20.8779 23.8 18.2454 23.8 15.5004C23.8 12.7554 22.7096 10.1228 20.7686 8.18184C18.8276 6.24084 16.195 5.15039 13.45 5.15039Z" fill="#3563E9"/>
<path d="M31.32 7.75H34.32V22.2H31.32V7.75Z" fill="#3563E9"/>
<path d="M36 17.2499C36 16.2103 36.3087 15.1941 36.8869 14.3301C37.4651 13.4661 38.2868 12.7932 39.2479 12.3967C40.209 12.0003 41.2661 11.8981 42.2853 12.1031C43.3045 12.3081 44.2399 12.8111 44.9729 13.5483C45.7059 14.2856 46.2036 15.2238 46.4028 16.2442C46.6019 17.2646 46.4937 18.3211 46.0917 19.2799C45.6897 20.2386 45.0122 21.0565 44.1449 21.6297C43.2776 22.203 42.2596 22.5058 41.22 22.4999C40.5305 22.5053 39.8468 22.373 39.2091 22.1106C38.5714 21.8483 37.9924 21.4613 37.5062 20.9724C37.02 20.4834 36.6364 19.9022 36.3777 19.263C36.1191 18.6238 35.9907 17.9394 36 17.2499ZM43.52 17.2499C43.5082 16.8017 43.3645 16.3669 43.1069 16C42.8493 15.633 42.4893 15.3501 42.0717 15.1867C41.6542 15.0233 41.1978 14.9866 40.7596 15.0813C40.3213 15.1759 39.9207 15.3976 39.6078 15.7188C39.2949 16.0399 39.0836 16.4461 39.0004 16.8867C38.9172 17.3273 38.9657 17.7826 39.1399 18.1957C39.3141 18.6088 39.6062 18.9615 39.9798 19.2094C40.3533 19.4574 40.7916 19.5897 41.24 19.5899C41.5453 19.5959 41.8485 19.5388 42.1307 19.4222C42.4129 19.3057 42.668 19.1322 42.8801 18.9126C43.0922 18.693 43.2567 18.4319 43.3634 18.1459C43.4701 17.8598 43.5166 17.5548 43.5 17.2499H43.52Z" fill="#3563E9"/>
<path d="M58.31 12.3001V21.7101C58.31 25.0301 55.71 26.4401 53.08 26.4401C52.1523 26.5162 51.2218 26.3319 50.3933 25.9079C49.5647 25.4839 48.8709 24.837 48.39 24.0401L50.92 22.5801C51.125 22.9935 51.4511 23.3345 51.8549 23.5578C52.2587 23.7811 52.7209 23.8761 53.18 23.8301C53.4725 23.8661 53.7693 23.8371 54.0492 23.7451C54.3292 23.653 54.5853 23.5003 54.7993 23.2977C55.0134 23.0951 55.18 22.8478 55.2873 22.5733C55.3946 22.2989 55.4399 22.0041 55.42 21.7101V20.8001C55.0709 21.2234 54.6279 21.5594 54.1263 21.7816C53.6246 22.0038 53.0781 22.106 52.53 22.0801C51.2039 22.0801 49.9322 21.5533 48.9945 20.6156C48.0568 19.678 47.53 18.4062 47.53 17.0801C47.53 15.754 48.0568 14.4823 48.9945 13.5446C49.9322 12.6069 51.2039 12.0801 52.53 12.0801C53.0781 12.0542 53.6246 12.1564 54.1263 12.3786C54.6279 12.6008 55.0709 12.9368 55.42 13.3601V12.3601L58.31 12.3001ZM55.42 17.0501C55.4399 16.5717 55.3163 16.0982 55.065 15.6906C54.8137 15.283 54.4463 14.9599 54.0098 14.7628C53.5734 14.5657 53.0881 14.5037 52.6161 14.5847C52.1442 14.6657 51.7072 14.886 51.3615 15.2173C51.0158 15.5486 50.7771 15.9758 50.6761 16.4439C50.5751 16.912 50.6164 17.3995 50.7947 17.8439C50.9731 18.2883 51.2803 18.6692 51.6768 18.9376C52.0734 19.206 52.5412 19.3497 53.02 19.3501C53.3325 19.3726 53.6462 19.3293 53.9408 19.2231C54.2355 19.1168 54.5047 18.9499 54.7308 18.7331C54.957 18.5164 55.1352 18.2546 55.2539 17.9647C55.3726 17.6748 55.4292 17.3632 55.42 17.0501Z" fill="#3563E9"/>
<path d="M60 17.25C60 16.2112 60.3082 15.1958 60.8855 14.3322C61.4628 13.4686 62.2833 12.7957 63.2432 12.3987C64.2031 12.0016 65.2592 11.8982 66.2779 12.1016C67.2966 12.305 68.232 12.806 68.9659 13.5412C69.6997 14.2765 70.1989 15.2129 70.4003 16.2319C70.6018 17.251 70.4964 18.3069 70.0975 19.266C69.6986 20.2252 69.0241 21.0444 68.1595 21.6201C67.2948 22.1958 66.2788 22.502 65.24 22.5C64.5492 22.5067 63.8639 22.3754 63.2245 22.1138C62.5851 21.8522 62.0043 21.4656 61.5163 20.9766C61.0282 20.4876 60.6427 19.9061 60.3823 19.2662C60.122 18.6263 59.992 17.9408 60 17.25ZM67.52 17.25C67.5082 16.8014 67.3642 16.3662 67.1062 15.999C66.8482 15.6319 66.4875 15.349 66.0694 15.1859C65.6513 15.0228 65.1944 14.9867 64.7559 15.0822C64.3174 15.1776 63.9168 15.4004 63.6043 15.7225C63.2918 16.0446 63.0813 16.4518 62.9993 16.893C62.9172 17.3342 62.9671 17.7898 63.1428 18.2027C63.3185 18.6157 63.6122 18.9676 63.9871 19.2144C64.3619 19.4611 64.8012 19.5918 65.25 19.59C65.5553 19.596 65.8585 19.5389 66.1407 19.4223C66.4229 19.3058 66.678 19.1323 66.8901 18.9127C67.1022 18.6931 67.2667 18.432 67.3734 18.146C67.4801 17.8599 67.5266 17.5549 67.51 17.25H67.52Z" fill="#3563E9"/>
<path d="M71.87 9.65012C71.87 9.29812 71.9744 8.95392 72.17 8.66122C72.3656 8.36848 72.6436 8.14034 72.9688 8.00561C73.2941 7.87089 73.652 7.83564 73.9973 7.90432C74.3425 7.973 74.6597 8.14253 74.9087 8.39147C75.1576 8.64042 75.3271 8.95762 75.3958 9.30282C75.4645 9.64812 75.4292 10.006 75.2945 10.3313C75.1598 10.6565 74.9316 10.9345 74.6389 11.1301C74.3462 11.3257 74.0021 11.4301 73.65 11.4301C73.1795 11.4249 72.7298 11.2357 72.3971 10.903C72.0644 10.5703 71.8752 10.1206 71.87 9.65012ZM72.16 12.3001H75.16V22.2001H72.16V12.3001Z" fill="#3563E9"/>
<path d="M88 17.2496C88.0336 17.908 87.9367 18.5666 87.7148 19.1874C87.493 19.8082 87.1505 20.379 86.7072 20.8669C86.2638 21.3549 85.7284 21.7503 85.1316 22.0305C84.5349 22.3107 83.8886 22.4701 83.23 22.4996C82.6711 22.5368 82.111 22.4473 81.5916 22.2378C81.0721 22.0282 80.6067 21.7041 80.23 21.2896V26.1796H77.23V12.2996H80.23V13.2296C80.6072 12.8163 81.073 12.4937 81.5925 12.2859C82.112 12.078 82.6718 11.9904 83.23 12.0296C83.886 12.0591 84.5297 12.2176 85.1244 12.4959C85.7191 12.7742 86.2532 13.167 86.6961 13.6517C87.1391 14.1364 87.4822 14.7036 87.7059 15.321C87.9296 15.9383 88.0296 16.5936 88 17.2496ZM85 17.2496C84.9882 16.7851 84.8395 16.3345 84.5727 15.9542C84.3059 15.5739 83.9327 15.2807 83.5 15.1116C83.0673 14.9424 82.5943 14.9048 82.1402 15.0033C81.6862 15.1018 81.2714 15.3322 80.9477 15.6655C80.624 15.9988 80.4059 16.4202 80.3208 16.877C80.2356 17.3337 80.2871 17.8054 80.4689 18.233C80.6507 18.6605 80.9546 19.0249 81.3426 19.2805C81.7306 19.5361 82.1854 19.6714 82.65 19.6696C82.9682 19.6831 83.2857 19.6292 83.5816 19.5114C83.8776 19.3936 84.1453 19.2146 84.3672 18.9861C84.5891 18.7576 84.7601 18.4847 84.8692 18.1855C84.9783 17.8862 85.0228 17.5673 85 17.2496Z" fill="#3563E9"/>
<path d="M97.13 19.2297C97.13 21.5097 95.13 22.4797 93.01 22.4797C92.1453 22.5575 91.2772 22.3742 90.5178 21.9535C89.7584 21.5328 89.1426 20.894 88.75 20.1197L91.33 18.6597C91.4322 19.0165 91.6538 19.3274 91.9578 19.5404C92.2618 19.7534 92.6297 19.8555 93 19.8297C93.71 19.8297 94.07 19.6097 94.07 19.2097C94.07 18.1197 89.2 18.6997 89.2 15.2697C89.2 13.1097 91.02 12.0297 93.08 12.0297C93.863 11.9946 94.641 12.1723 95.3311 12.5438C96.0213 12.9153 96.598 13.4668 97 14.1397L94.42 15.4997C94.306 15.2417 94.1198 15.0223 93.8838 14.8679C93.6477 14.7135 93.372 14.6308 93.09 14.6297C92.57 14.6297 92.26 14.8297 92.26 15.1797C92.26 16.3197 97.13 15.5697 97.13 19.2297Z" fill="#3563E9"/>
<path d="M108 12.2998V22.1998H105V21.2698C104.659 21.6815 104.226 22.0072 103.737 22.2209C103.247 22.4346 102.714 22.5301 102.18 22.4998C100.18 22.4998 98.47 21.0698 98.47 18.3998V12.2998H101.47V17.9498C101.446 18.186 101.474 18.4245 101.552 18.6489C101.63 18.8732 101.755 19.078 101.919 19.2492C102.084 19.4203 102.284 19.5537 102.505 19.6402C102.726 19.7266 102.963 19.764 103.2 19.7498C104.28 19.7498 105.04 19.1098 105.04 17.7498V12.2998H108Z" fill="#3563E9"/>
<path d="M125 16.1197V22.1997H122V16.3797C122 15.3797 121.53 14.7597 120.58 14.7597C119.63 14.7597 119.03 15.4497 119.03 16.6197V22.1997H116.03V16.3797C116.03 15.3797 115.56 14.7597 114.61 14.7597C113.66 14.7597 113.06 15.4497 113.06 16.6197V22.1997H110.06V12.2997H113.06V13.2097C113.371 12.8077 113.776 12.4893 114.241 12.2833C114.705 12.0773 115.214 11.9901 115.72 12.0297C116.227 12.0032 116.733 12.1092 117.187 12.3371C117.641 12.565 118.028 12.9071 118.31 13.3297C118.64 12.8881 119.076 12.5373 119.578 12.31C120.079 12.0826 120.631 11.9862 121.18 12.0297C123.52 12.0297 125 13.6497 125 16.1197Z" fill="#3563E9"/>
<path d="M127.52 12.2398C128.735 12.2398 129.72 11.2548 129.72 10.0398C129.72 8.82484 128.735 7.83984 127.52 7.83984C126.305 7.83984 125.32 8.82484 125.32 10.0398C125.32 11.2548 126.305 12.2398 127.52 12.2398Z" fill="#3563E9"/>
</svg>
