<svg width="205" height="47" viewBox="0 0 205 47" fill="none" xmlns="http://www.w3.org/2000/svg">
<path d="M21.328 7.36621V0.741211H0.228027V46.2589H21.328V39.6339C17.0057 39.6339 12.8603 37.934 9.80403 34.9083C6.74767 31.8826 5.03064 27.779 5.03064 23.5C5.03064 19.2211 6.74767 15.1173 9.80403 12.0917C12.8603 9.06603 17.0057 7.36621 21.328 7.36621Z" fill="white"/>
<path d="M21.3279 7.36621V39.6339C25.6502 39.6339 29.7956 37.934 32.8519 34.9083C35.9083 31.8826 37.6253 27.779 37.6253 23.5C37.6253 19.2211 35.9083 15.1173 32.8519 12.0917C29.7956 9.06603 25.6502 7.36621 21.3279 7.36621Z" fill="white"/>
<path d="M49.4666 11.4192H54.1904V33.9442H49.4666V11.4192Z" fill="white"/>
<path d="M56.8357 26.2278C56.8357 24.6073 57.3218 23.0232 58.2322 21.6764C59.1427 20.3296 60.4366 19.2806 61.9499 18.6626C63.4633 18.0446 65.1278 17.8853 66.7327 18.2049C68.3376 18.5244 69.8105 19.3085 70.9647 20.4577C72.1189 21.607 72.9026 23.0695 73.2162 24.6601C73.5297 26.2508 73.3594 27.8977 72.7264 29.3923C72.0934 30.8867 71.0266 32.1617 69.6609 33.0552C68.2952 33.9488 66.6922 34.4209 65.0553 34.4117C63.9696 34.4201 62.893 34.2138 61.8888 33.8048C60.8847 33.3959 59.973 32.7927 59.2074 32.0306C58.4418 31.2683 57.8378 30.3623 57.4304 29.3659C57.0232 28.3695 56.8211 27.3026 56.8357 26.2278ZM68.6769 26.2278C68.6583 25.5292 68.432 24.8514 68.0264 24.2795C67.6208 23.7074 67.0539 23.2664 66.3964 23.0117C65.739 22.757 65.0203 22.6998 64.3303 22.8474C63.6401 22.9948 63.0093 23.3404 62.5166 23.8411C62.0239 24.3417 61.6912 24.9749 61.5602 25.6617C61.4292 26.3485 61.5056 27.0582 61.7799 27.7022C62.0542 28.3461 62.5141 28.8959 63.1024 29.2824C63.6905 29.6689 64.3807 29.8752 65.0868 29.8755C65.5675 29.8848 66.0449 29.7958 66.4893 29.6141C66.9336 29.4325 67.3353 29.162 67.6693 28.8197C68.0033 28.4774 68.2623 28.0704 68.4303 27.6245C68.5983 27.1786 68.6715 26.7031 68.6454 26.2278H68.6769Z" fill="white"/>
<path d="M91.9657 18.5117V33.1802C91.9657 38.3555 87.8717 40.5534 83.7304 40.5534C82.2696 40.6721 80.8044 40.3848 79.4998 39.7238C78.1951 39.0629 77.1026 38.0545 76.3454 36.8123L80.3292 34.5364C80.652 35.1808 81.1655 35.7124 81.8013 36.0604C82.4372 36.4085 83.1649 36.5566 83.8879 36.4849C84.3484 36.541 84.8158 36.4958 85.2565 36.3524C85.6974 36.2088 86.1007 35.9708 86.4377 35.655C86.7748 35.3392 87.0371 34.9537 87.2061 34.5258C87.375 34.098 87.4464 33.6385 87.415 33.1802V31.7617C86.8653 32.4215 86.1678 32.9453 85.3779 33.2917C84.5879 33.638 83.7274 33.7973 82.8643 33.757C80.7762 33.757 78.7738 32.9358 77.2973 31.4741C75.8207 30.0125 74.9912 28.03 74.9912 25.9629C74.9912 23.8957 75.8207 21.9133 77.2973 20.4516C78.7738 18.9899 80.7762 18.1687 82.8643 18.1687C83.7274 18.1284 84.5879 18.2877 85.3779 18.634C86.1678 18.9804 86.8653 19.5042 87.415 20.164V18.6052L91.9657 18.5117ZM87.415 25.9161C87.4464 25.1703 87.2517 24.4322 86.856 23.7969C86.4603 23.1615 85.8818 22.6578 85.1945 22.3506C84.5073 22.0433 83.7431 21.9467 82.9999 22.073C82.2569 22.1992 81.5687 22.5426 81.0244 23.0591C80.48 23.5755 80.1042 24.2414 79.9452 24.9711C79.7861 25.7008 79.8511 26.4607 80.1319 27.1535C80.4128 27.8462 80.8965 28.44 81.5209 28.8584C82.1454 29.2768 82.882 29.5008 83.6359 29.5014C84.128 29.5365 84.6219 29.469 85.0858 29.3034C85.5499 29.1377 85.9738 28.8775 86.3298 28.5396C86.686 28.2018 86.9666 27.7937 87.1535 27.3418C87.3404 26.8899 87.4295 26.4042 87.415 25.9161Z" fill="white"/>
<path d="M94.6268 26.228C94.6268 24.6087 95.1121 23.0259 96.0211 21.6797C96.9301 20.3335 98.2221 19.2846 99.7336 18.6657C101.245 18.0467 102.908 17.8855 104.512 18.2026C106.116 18.5197 107.589 19.3006 108.745 20.4467C109.9 21.5929 110.686 23.0526 111.003 24.641C111.321 26.2296 111.155 27.8756 110.527 29.3706C109.898 30.8659 108.836 32.1428 107.475 33.0403C106.113 33.9377 104.514 34.415 102.878 34.4119C101.79 34.4223 100.711 34.2176 99.7042 33.8098C98.6973 33.4021 97.7828 32.7994 97.0144 32.0372C96.2458 31.2749 95.6388 30.3684 95.2288 29.3709C94.8189 28.3734 94.6142 27.3049 94.6268 26.228ZM106.468 26.228C106.449 25.5288 106.223 24.8504 105.816 24.278C105.41 23.7057 104.842 23.2647 104.184 23.0105C103.525 22.7562 102.806 22.7 102.116 22.8488C101.425 22.9975 100.794 23.3448 100.302 23.8469C99.8101 24.349 99.4787 24.9838 99.3495 25.6715C99.2203 26.3593 99.2988 27.0695 99.5755 27.7131C99.8522 28.3569 100.315 28.9055 100.905 29.2902C101.495 29.6748 102.187 29.8785 102.894 29.8757C103.374 29.885 103.852 29.796 104.296 29.6143C104.74 29.4327 105.142 29.1622 105.476 28.8199C105.81 28.4776 106.069 28.0706 106.237 27.6247C106.405 27.1788 106.478 26.7033 106.452 26.228H106.468Z" fill="white"/>
<path d="M113.318 14.3809C113.318 13.8322 113.482 13.2957 113.79 12.8394C114.098 12.3831 114.536 12.0274 115.048 11.8174C115.56 11.6074 116.124 11.5525 116.667 11.6595C117.211 11.7666 117.71 12.0308 118.102 12.4189C118.494 12.807 118.761 13.3014 118.869 13.8395C118.978 14.3778 118.922 14.9357 118.71 15.4428C118.498 15.9497 118.139 16.3831 117.678 16.688C117.217 16.9929 116.675 17.1556 116.12 17.1556C115.38 17.1475 114.671 16.8526 114.148 16.334C113.624 15.8153 113.326 15.1143 113.318 14.3809ZM113.774 18.5118H118.498V33.9441H113.774V18.5118Z" fill="white"/>
<path d="M138.717 26.2279C138.769 27.2543 138.617 28.2809 138.267 29.2486C137.918 30.2163 137.379 31.1061 136.681 31.8667C135.983 32.6274 135.14 33.2437 134.2 33.6805C133.26 34.1173 132.243 34.3658 131.206 34.4117C130.326 34.4697 129.444 34.3302 128.626 34.0036C127.808 33.6769 127.075 33.1717 126.482 32.5256V40.1482H121.758V18.5117H126.482V19.9615C127.076 19.3172 127.809 18.8143 128.627 18.4904C129.445 18.1663 130.327 18.0298 131.206 18.0909C132.239 18.1369 133.252 18.3839 134.189 18.8177C135.125 19.2516 135.966 19.8639 136.663 20.6194C137.361 21.375 137.901 22.2592 138.253 23.2216C138.606 24.1838 138.763 25.2053 138.717 26.2279ZM133.993 26.2279C133.974 25.5039 133.74 24.8014 133.32 24.2086C132.9 23.6158 132.312 23.1588 131.631 22.8952C130.949 22.6314 130.205 22.5728 129.49 22.7263C128.775 22.8799 128.122 23.239 127.612 23.7586C127.102 24.2781 126.759 24.935 126.625 25.6471C126.491 26.359 126.572 27.0943 126.858 27.7609C127.144 28.4273 127.623 28.9953 128.234 29.3937C128.845 29.7922 129.561 30.0031 130.292 30.0003C130.793 30.0213 131.293 29.9373 131.759 29.7537C132.225 29.57 132.647 29.291 132.996 28.9348C133.346 28.5786 133.615 28.1532 133.787 27.6868C133.958 27.2203 134.029 26.7232 133.993 26.2279Z" fill="white"/>
<path d="M153.093 29.3143C153.093 32.8684 149.944 34.3805 146.605 34.3805C145.244 34.5018 143.877 34.216 142.681 33.5602C141.485 32.9044 140.516 31.9087 139.897 30.7017L143.96 28.4258C144.121 28.982 144.47 29.4666 144.949 29.7986C145.427 30.1307 146.007 30.2898 146.59 30.2496C147.708 30.2496 148.274 29.9067 148.274 29.2831C148.274 27.584 140.606 28.4881 140.606 23.1414C140.606 19.7743 143.472 18.0908 146.716 18.0908C147.949 18.0361 149.174 18.3131 150.26 18.8922C151.347 19.4713 152.255 20.331 152.888 21.3799L148.826 23.4999C148.646 23.0977 148.353 22.7557 147.981 22.515C147.61 22.2743 147.175 22.1454 146.731 22.1437C145.913 22.1437 145.424 22.4555 145.424 23.0011C145.424 24.7781 153.093 23.609 153.093 29.3143Z" fill="white"/>
<path d="M170.209 18.5117V33.9441H165.485V32.4944C164.948 33.1361 164.266 33.6438 163.496 33.977C162.725 34.3101 161.885 34.459 161.045 34.4117C157.895 34.4117 155.203 32.1826 155.203 28.0205V18.5117H159.927V27.3191C159.889 27.6873 159.933 28.059 160.056 28.4088C160.178 28.7585 160.375 29.0777 160.634 29.3446C160.893 29.6113 161.208 29.8193 161.556 29.9541C161.904 30.0888 162.277 30.1471 162.651 30.125C164.351 30.125 165.548 29.1273 165.548 27.0073V18.5117H170.209Z" fill="white"/>
<path d="M196.978 24.4664V33.9441H192.254V24.8717C192.254 23.3129 191.514 22.3464 190.018 22.3464C188.522 22.3464 187.577 23.422 187.577 25.2458V33.9441H182.853V24.8717C182.853 23.3129 182.113 22.3464 180.617 22.3464C179.121 22.3464 178.177 23.422 178.177 25.2458V33.9441H173.453V18.5117H178.177V19.9302C178.666 19.3036 179.304 18.8073 180.036 18.4861C180.767 18.165 181.568 18.0291 182.365 18.0908C183.163 18.0495 183.96 18.2147 184.675 18.57C185.39 18.9253 185.999 19.4585 186.443 20.1173C186.963 19.4289 187.649 18.8821 188.44 18.5278C189.229 18.1733 190.098 18.023 190.962 18.0908C194.647 18.0908 196.978 20.6161 196.978 24.4664Z" fill="white"/>
<path d="M200.946 18.4181C202.859 18.4181 204.41 16.8827 204.41 14.9887C204.41 13.0948 202.859 11.5593 200.946 11.5593C199.032 11.5593 197.481 13.0948 197.481 14.9887C197.481 16.8827 199.032 18.4181 200.946 18.4181Z" fill="white"/>
</svg>
