<?xml version="1.0" encoding="UTF-8" standalone="no"?>
<!DOCTYPE svg PUBLIC "-//W3C//DTD SVG 1.1//EN" "http://www.w3.org/Graphics/SVG/1.1/DTD/svg11.dtd">
<svg width="100%" height="100%" viewBox="0 0 800 600" version="1.1" xmlns="http://www.w3.org/2000/svg" xmlns:xlink="http://www.w3.org/1999/xlink" xml:space="preserve" xmlns:serif="http://www.serif.com/" style="fill-rule:evenodd;clip-rule:evenodd;stroke-linejoin:round;stroke-miterlimit:2;">
    <g transform="matrix(1.16018,0,0,1.16018,-36.5544,-23.8412)">
        <path d="M344.881,149.343C338.039,148.678 331.148,148.678 324.305,149.343L320.916,165.842C314.357,166.845 307.929,168.568 301.748,170.978L290.563,158.384C284.305,161.23 278.337,164.675 272.744,168.672L278.058,184.655C272.88,188.803 268.174,193.509 264.026,198.687L248.043,193.373C244.046,198.966 240.601,204.934 237.755,211.193L250.349,222.377C247.938,228.558 246.216,234.987 245.212,241.545L228.714,244.934C228.049,251.777 228.049,258.668 228.714,265.511L245.212,268.899C246.216,275.458 247.938,281.886 250.349,288.068L237.755,299.252C240.601,305.51 244.046,311.478 248.043,317.072L264.026,311.757C268.174,316.936 272.88,321.641 278.058,325.79L272.744,341.772C278.337,345.769 284.305,349.215 290.563,352.06L301.748,339.467C307.929,341.877 314.357,343.599 320.916,344.603L324.305,361.101C331.148,361.766 338.039,361.766 344.881,361.101L348.27,344.603C354.829,343.599 361.257,341.877 367.439,339.467L378.623,352.06C384.881,349.215 390.849,345.769 396.443,341.772L391.128,325.79C396.306,321.641 401.012,316.936 405.161,311.757L421.143,317.072C425.14,311.478 428.586,305.51 431.431,299.252L418.838,288.068C421.248,281.886 422.97,275.458 423.974,268.899L440.472,265.511C441.137,258.668 441.137,251.777 440.472,244.934L423.974,241.545C422.97,234.987 421.248,228.558 418.838,222.377L431.431,211.193C428.586,204.934 425.14,198.966 421.143,193.373L405.161,198.687C401.012,193.509 396.306,188.803 391.128,184.655L396.443,168.672C390.849,164.675 384.881,161.23 378.623,158.384L367.439,170.978C361.257,168.568 354.829,166.845 348.27,165.842L344.881,149.343ZM334.593,220.556C353.726,220.556 369.26,236.089 369.26,255.222C369.26,274.355 353.726,289.889 334.593,289.889C315.46,289.889 299.927,274.355 299.927,255.222C299.927,236.089 315.46,220.556 334.593,220.556Z"/>
    </g>
</svg>
